<?xml version="1.0" encoding="utf-8"?>
<!-- Generator: Adobe Illustrator 21.1.0, SVG Export Plug-In . SVG Version: 6.00 Build 0)  -->
<svg version="1.1" xmlns="http://www.w3.org/2000/svg" xmlns:xlink="http://www.w3.org/1999/xlink" x="0px" y="0px"
	 viewBox="0 0 150 200" style="enable-background:new 0 0 150 200;" xml:space="preserve">
<style type="text/css">
	.st0{fill:#FFFFFF;}
	.st1{stroke:#000000;stroke-width:3;stroke-miterlimit:10;}
	.st2{font-family:'KozGoPr6N-Regular-90ms-RKSJ-H';}
	.st3{font-size:108px;}
</style>
<g id="レイヤー_1">
	<g>
		<path class="st0" d="M75,195c-38.6,0-70-42.6-70-95C5,47.6,36.4,5,75,5s70,42.6,70,95C145,152.4,113.6,195,75,195z"/>
		<path d="M75,10c16.8,0,32.8,9,45,25.3c12.9,17.2,20,40.1,20,64.7s-7.1,47.5-20,64.7C107.8,181,91.8,190,75,190s-32.8-9-45-25.3
			c-12.9-17.2-20-40.1-20-64.7s7.1-47.5,20-64.7C42.2,19,58.2,10,75,10 M75,0C33.6,0,0,44.8,0,100s33.6,100,75,100s75-44.8,75-100
			S116.4,0,75,0L75,0z"/>
	</g>
</g>
<g id="レイヤー_2">
	<text transform="matrix(1 0 0 1 46 139)" class="st1 st2 st3">8</text>
</g>
</svg>
